<svg version="1.1" id="Layer_1" xmlns="http://www.w3.org/2000/svg" xmlns:xlink="http://www.w3.org/1999/xlink" x="0px" y="0px"
	 width="100%" viewBox="0 0 1024 1024" enable-background="new 0 0 1024 1024" xml:space="preserve">
<path fill="#000000" opacity="1.000000" stroke="none" 
	d="
M1025.000000,636.000000 
	C1025.000000,648.354248 1025.000000,660.708435 1024.734619,673.306396 
	C1020.140076,663.315979 1015.576843,653.173157 1011.543884,642.823547 
	C1006.960144,631.060669 1003.016479,619.049316 998.492859,607.261719 
	C992.785645,592.389648 986.598938,577.700928 980.944336,562.809570 
	C975.763184,549.164673 971.294556,535.246643 966.004700,521.646362 
	C959.327271,504.478821 951.926453,487.593140 945.219910,470.436462 
	C937.246399,450.038635 929.730774,429.462311 921.911926,409.003387 
	C918.413879,399.850342 914.513733,390.850189 911.057678,381.682068 
	C905.860840,367.896118 901.058838,353.960052 895.770142,340.210388 
	C892.317749,331.234589 888.093201,322.557434 884.578857,313.603455 
	C876.573608,293.207855 868.827942,272.710510 860.898132,252.285065 
	C858.680542,246.572906 856.043091,241.022980 853.852722,235.301208 
	C848.991638,222.603180 844.359436,209.817505 839.496582,197.120178 
	C837.192810,191.104950 834.048340,185.366760 832.221619,179.224442 
	C829.537903,170.200211 828.603088,169.045090 819.200317,169.044342 
	C755.036743,169.039246 690.873169,169.044586 626.709595,169.051605 
	C625.043640,169.051788 623.201111,168.670364 621.756592,169.251572 
	C619.960571,169.974274 617.640930,171.175644 617.013794,172.753204 
	C609.164001,192.498566 601.445190,212.298981 593.974060,232.190903 
	C588.827515,245.893509 584.362549,259.853607 579.145203,273.527740 
	C573.900818,287.272583 567.858093,300.712891 562.613525,314.457642 
	C557.173828,328.713654 552.470642,343.249969 547.075562,357.523956 
	C542.206055,370.407318 536.763733,383.072998 531.708557,395.887787 
	C526.645813,408.721985 521.777710,421.632904 516.773071,434.490265 
	C510.765686,449.923981 504.656433,465.318146 498.684204,480.765381 
	C495.089783,490.062378 491.793335,499.475372 488.146637,508.751190 
	C482.800354,522.350159 477.141724,535.826904 471.848969,549.446167 
	C468.851685,557.158630 466.501740,565.121765 463.537292,572.848083 
	C458.425537,586.171082 453.016571,599.379578 447.818695,612.669922 
	C443.890656,622.713440 440.137421,632.825256 436.233398,642.878235 
	C431.966583,653.865417 427.478912,664.768616 423.339966,675.803162 
	C419.208832,686.816772 415.543488,698.005432 411.397064,709.013062 
	C406.022034,723.282043 400.346924,737.437683 394.849854,751.661011 
	C390.189453,763.719543 385.565430,775.792480 380.984467,787.881470 
	C373.512421,807.599915 366.027039,827.313721 358.689514,847.082336 
	C356.950226,851.768311 357.740601,852.641724 362.678589,852.885864 
	C363.842773,852.943420 365.011322,852.921265 366.177856,852.921326 
	C431.674683,852.923767 497.171509,852.926025 562.668335,852.918579 
	C564.499512,852.918396 566.399109,853.093262 568.139282,852.666626 
	C569.443359,852.346863 571.134888,851.452637 571.620117,850.356628 
	C573.019714,847.195129 573.970642,843.824280 574.964050,840.495728 
	C577.994080,830.343506 580.832092,820.132263 583.994568,810.022034 
	C586.462158,802.132996 589.465027,794.411621 591.942078,786.525330 
	C596.560547,771.821838 601.093323,757.088501 605.386902,742.287903 
	C606.605042,738.089050 608.986389,736.933838 613.018311,736.937622 
	C682.014832,737.002502 751.011536,737.024109 820.007935,736.900635 
	C825.520691,736.890747 828.287292,739.349487 829.705261,744.250427 
	C831.409302,750.140320 833.133667,756.026428 834.986084,761.870789 
	C838.848511,774.056885 842.851257,786.198608 846.703186,798.388000 
	C850.991882,811.959167 855.464417,825.481934 859.326172,839.175476 
	C863.177673,852.832458 862.889465,852.910461 877.007996,852.917908 
	C926.338684,852.943970 975.669312,852.972473 1025.000000,853.000000 
	C1025.000000,861.354248 1025.000000,869.708496 1024.531494,878.546875 
	C1000.565125,879.047180 977.067261,879.062073 953.569397,879.079956 
	C942.134216,879.088684 942.129028,879.091125 942.119934,890.770203 
	C942.108887,904.935974 942.124817,919.101807 942.096008,933.267517 
	C942.079041,941.575012 941.567810,942.102722 933.330994,942.102966 
	C652.848816,942.110718 372.366669,942.111084 91.884491,942.105225 
	C83.530327,942.105042 83.100510,941.675964 83.093674,933.355835 
	C83.068192,902.357849 82.893951,871.358154 83.187065,840.363037 
	C83.255585,833.117126 78.660858,829.653259 74.093300,825.942200 
	C68.492226,821.391541 62.048477,817.774475 56.901627,812.790710 
	C47.366982,803.558228 38.447254,793.684448 29.388836,783.968201 
	C21.129253,775.108887 13.751014,765.617004 8.121834,754.780212 
	C6.420179,751.504272 3.410529,748.907715 1.000005,746.000000 
	C1.000000,730.645752 1.000000,715.291565 1.275089,699.691650 
	C2.167421,700.956177 2.811367,702.456177 3.396917,703.978577 
	C5.178107,708.609680 6.255373,713.673462 8.828943,717.807983 
	C17.341995,731.484436 25.978340,745.124390 35.385105,758.189575 
	C41.368622,766.500305 48.383354,774.193359 55.703259,781.381775 
	C62.888214,788.437683 70.927567,794.650452 78.807617,800.963989 
	C86.163132,806.857117 93.299797,813.278625 101.423141,817.903931 
	C117.270195,826.926880 133.458221,835.526489 150.998459,840.946411 
	C160.136276,843.770081 169.463608,846.040955 178.798889,848.146851 
	C187.162186,850.033386 195.639084,852.609009 204.091110,852.707153 
	C244.912201,853.181519 285.742249,852.831787 326.567932,853.027039 
	C332.161591,853.053772 335.006775,851.000305 336.864288,845.864624 
	C342.446930,830.429565 348.382324,815.121948 354.193909,799.769958 
	C360.422974,783.315063 366.605194,766.842163 372.920929,750.420593 
	C381.684479,727.634583 390.566010,704.893921 399.373352,682.124756 
	C406.854401,662.784180 414.362854,643.453796 421.741333,624.074097 
	C426.168213,612.446838 430.203735,600.669312 434.711700,589.074585 
	C440.670319,573.748596 447.060913,558.590210 452.990723,543.253479 
	C456.580383,533.969238 459.383606,524.379822 463.007416,515.110229 
	C470.744324,495.319214 478.874390,475.682220 486.669647,455.913635 
	C491.663696,443.248749 496.310486,430.447296 501.181458,417.733337 
	C505.742523,405.828308 510.364288,393.946350 515.014587,382.075867 
	C518.772034,372.484772 522.648132,362.940186 526.403931,353.348450 
	C529.793091,344.693024 533.127258,336.015564 536.419312,327.322693 
	C540.885681,315.529022 545.239197,303.692413 549.736694,291.910706 
	C552.808594,283.863525 555.704590,275.723633 559.280212,267.899902 
	C565.698059,253.857315 571.079712,239.755127 569.238586,223.806808 
	C568.574219,218.051697 569.147095,212.154465 569.144287,206.322098 
	C569.139404,195.990524 569.039001,185.657974 569.156982,175.327850 
	C569.207825,170.873688 567.320740,168.833221 562.877075,169.048981 
	C561.048889,169.137741 559.211914,169.040344 557.378967,169.040283 
	C492.556305,169.038086 427.733673,169.038544 362.911011,169.035446 
	C350.995789,169.034882 350.985962,169.028671 350.986176,181.115570 
	C350.989166,356.919769 350.995422,532.723938 350.999023,708.528137 
	C350.999207,717.824158 350.813538,718.020752 341.454498,718.023010 
	C310.792908,718.030457 280.131317,718.027710 249.469711,718.016785 
	C240.122604,718.013489 239.919205,717.814453 239.916397,708.512878 
	C239.903931,667.186401 239.917252,625.859863 239.888031,584.533386 
	C239.883316,577.860779 239.119415,576.979858 232.960098,576.978516 
	C155.640060,576.961792 78.320030,576.986206 1.000000,577.000000 
	C1.000000,568.312439 1.000000,559.624817 1.468243,550.491272 
	C25.431730,550.060791 48.926975,550.083557 72.422218,550.088440 
	C83.081566,550.090698 83.095322,550.074707 83.095116,539.193054 
	C83.092255,392.552277 83.084984,245.911499 83.081146,99.270721 
	C83.081062,96.104774 83.139198,92.938599 83.115173,89.772942 
	C83.086945,86.054245 84.640244,84.416893 88.595375,84.534142 
	C98.409317,84.825058 108.233124,84.849091 118.053085,84.858345 
	C151.213898,84.889580 184.374969,84.939774 217.535538,84.843178 
	C243.523544,84.767471 269.510864,84.340088 295.498596,84.330711 
	C328.476837,84.318810 361.455048,84.648247 394.433411,84.676788 
	C410.078827,84.690331 425.724945,84.175934 441.370087,84.210732 
	C459.510101,84.251076 477.649323,84.828789 495.788910,84.827766 
	C548.276978,84.824806 600.764954,84.597557 653.253052,84.562172 
	C678.912415,84.544868 704.572205,84.898201 730.231201,84.836578 
	C777.715027,84.722534 825.198242,84.341324 872.682068,84.248322 
	C891.822144,84.210831 910.962830,84.761284 930.103821,84.809914 
	C942.116882,84.840431 942.124146,84.644974 942.124146,96.815506 
	C942.124207,201.963699 942.114746,307.111877 942.153198,412.260071 
	C942.154358,415.397369 941.989502,418.772644 943.021790,421.632904 
	C949.597900,439.855072 956.401123,457.997070 963.299988,476.100525 
	C970.394653,494.717773 977.788025,513.221375 984.854370,531.849182 
	C990.445251,546.587769 995.528198,561.520691 1001.216125,576.220459 
	C1008.954834,596.220215 1017.054932,616.080078 1025.000000,636.000000 
z"/>
<path fill="#1C181A" opacity="1.000000" stroke="none" 
	d="
M1025.000000,852.531372 
	C975.669312,852.972473 926.338684,852.943970 877.007996,852.917908 
	C862.889465,852.910461 863.177673,852.832458 859.326172,839.175476 
	C855.464417,825.481934 850.991882,811.959167 846.703186,798.388000 
	C842.851257,786.198608 838.848511,774.056885 834.986084,761.870789 
	C833.133667,756.026428 831.409302,750.140320 829.705261,744.250427 
	C828.287292,739.349487 825.520691,736.890747 820.007935,736.900635 
	C751.011536,737.024109 682.014832,737.002502 613.018311,736.937622 
	C608.986389,736.933838 606.605042,738.089050 605.386902,742.287903 
	C601.093323,757.088501 596.560547,771.821838 591.942078,786.525330 
	C589.465027,794.411621 586.462158,802.132996 583.994568,810.022034 
	C580.832092,820.132263 577.994080,830.343506 574.964050,840.495728 
	C573.970642,843.824280 573.019714,847.195129 571.620117,850.356628 
	C571.134888,851.452637 569.443359,852.346863 568.139282,852.666626 
	C566.399109,853.093262 564.499512,852.918396 562.668335,852.918579 
	C497.171509,852.926025 431.674683,852.923767 366.177856,852.921326 
	C365.011322,852.921265 363.842773,852.943420 362.678589,852.885864 
	C357.740601,852.641724 356.950226,851.768311 358.689514,847.082336 
	C366.027039,827.313721 373.512421,807.599915 380.984467,787.881470 
	C385.565430,775.792480 390.189453,763.719543 394.849854,751.661011 
	C400.346924,737.437683 406.022034,723.282043 411.397064,709.013062 
	C415.543488,698.005432 419.208832,686.816772 423.339966,675.803162 
	C427.478912,664.768616 431.966583,653.865417 436.233398,642.878235 
	C440.137421,632.825256 443.890656,622.713440 447.818695,612.669922 
	C453.016571,599.379578 458.425537,586.171082 463.537292,572.848083 
	C466.501740,565.121765 468.851685,557.158630 471.848969,549.446167 
	C477.141724,535.826904 482.800354,522.350159 488.146637,508.751190 
	C491.793335,499.475372 495.089783,490.062378 498.684204,480.765381 
	C504.656433,465.318146 510.765686,449.923981 516.773071,434.490265 
	C521.777710,421.632904 526.645813,408.721985 531.708557,395.887787 
	C536.763733,383.072998 542.206055,370.407318 547.075562,357.523956 
	C552.470642,343.249969 557.173828,328.713654 562.613525,314.457642 
	C567.858093,300.712891 573.900818,287.272583 579.145203,273.527740 
	C584.362549,259.853607 588.827515,245.893509 593.974060,232.190903 
	C601.445190,212.298981 609.164001,192.498566 617.013794,172.753204 
	C617.640930,171.175644 619.960571,169.974274 621.756592,169.251572 
	C623.201111,168.670364 625.043640,169.051788 626.709595,169.051605 
	C690.873169,169.044586 755.036743,169.039246 819.200317,169.044342 
	C828.603088,169.045090 829.537903,170.200211 832.221619,179.224442 
	C834.048340,185.366760 837.192810,191.104950 839.496582,197.120178 
	C844.359436,209.817505 848.991638,222.603180 853.852722,235.301208 
	C856.043091,241.022980 858.680542,246.572906 860.898132,252.285065 
	C868.827942,272.710510 876.573608,293.207855 884.578857,313.603455 
	C888.093201,322.557434 892.317749,331.234589 895.770142,340.210388 
	C901.058838,353.960052 905.860840,367.896118 911.057678,381.682068 
	C914.513733,390.850189 918.413879,399.850342 921.911926,409.003387 
	C929.730774,429.462311 937.246399,450.038635 945.219910,470.436462 
	C951.926453,487.593140 959.327271,504.478821 966.004700,521.646362 
	C971.294556,535.246643 975.763184,549.164673 980.944336,562.809570 
	C986.598938,577.700928 992.785645,592.389648 998.492859,607.261719 
	C1003.016479,619.049316 1006.960144,631.060669 1011.543884,642.823547 
	C1015.576843,653.173157 1020.140076,663.315979 1024.734619,673.775085 
	C1025.000000,733.354248 1025.000000,792.708435 1025.000000,852.531372 
M699.944641,438.378357 
	C692.879822,459.769073 685.724548,481.130524 678.783386,502.561279 
	C674.452393,515.933289 670.447754,529.411011 666.291016,542.839539 
	C661.394836,558.656860 656.543640,574.488464 651.552979,590.275940 
	C650.459045,593.736633 651.753540,594.939819 654.990906,594.978149 
	C656.323486,594.993958 657.656067,595.024963 658.988647,595.024963 
	C697.639526,595.026001 736.290344,595.025208 774.941223,595.018372 
	C776.773193,595.018066 778.609741,595.030518 780.436096,594.912048 
	C783.872925,594.689026 785.132629,593.232849 783.892273,589.632690 
	C781.734253,583.368835 780.015137,576.955383 777.963928,570.652832 
	C772.992554,555.377869 767.952576,540.125061 762.909607,524.873474 
	C756.634888,505.896790 750.201660,486.971344 744.085938,467.943726 
	C740.486389,456.744537 737.652222,445.296844 733.963867,434.129364 
	C729.489746,420.583008 724.511414,407.202209 719.662659,393.781769 
	C718.925293,391.740814 717.709961,389.872559 716.715698,387.924408 
	C716.142090,387.941589 715.568481,387.958771 714.994873,387.975952 
	C710.023804,404.514984 705.052734,421.054047 699.944641,438.378357 
z"/>
<path fill="#1C181A" opacity="1.000000" stroke="none" 
	d="
M1025.000000,635.531372 
	C1017.054932,616.080078 1008.954834,596.220215 1001.216125,576.220459 
	C995.528198,561.520691 990.445251,546.587769 984.854370,531.849182 
	C977.788025,513.221375 970.394653,494.717773 963.299988,476.100525 
	C956.401123,457.997070 949.597900,439.855072 943.021790,421.632904 
	C941.989502,418.772644 942.154358,415.397369 942.153198,412.260071 
	C942.114746,307.111877 942.124207,201.963699 942.124146,96.815506 
	C942.124146,84.644974 942.116882,84.840431 930.103821,84.809914 
	C910.962830,84.761284 891.822144,84.210831 872.682068,84.248322 
	C825.198242,84.341324 777.715027,84.722534 730.231201,84.836578 
	C704.572205,84.898201 678.912415,84.544868 653.253052,84.562172 
	C600.764954,84.597557 548.276978,84.824806 495.788910,84.827766 
	C477.649323,84.828789 459.510101,84.251076 441.370087,84.210732 
	C425.724945,84.175934 410.078827,84.690331 394.433411,84.676788 
	C361.455048,84.648247 328.476837,84.318810 295.498596,84.330711 
	C269.510864,84.340088 243.523544,84.767471 217.535538,84.843178 
	C184.374969,84.939774 151.213898,84.889580 118.053085,84.858345 
	C108.233124,84.849091 98.409317,84.825058 88.595375,84.534142 
	C84.640244,84.416893 83.086945,86.054245 83.115173,89.772942 
	C83.139198,92.938599 83.081062,96.104774 83.081146,99.270721 
	C83.084984,245.911499 83.092255,392.552277 83.095116,539.193054 
	C83.095322,550.074707 83.081566,550.090698 72.422218,550.088440 
	C48.926975,550.083557 25.431730,550.060791 1.468243,550.022644 
	C1.000000,367.036133 1.000000,184.072296 1.000000,1.054222 
	C342.229767,1.054222 683.459534,1.054222 1025.000000,1.054222 
	C1025.000000,212.354126 1025.000000,423.708405 1025.000000,635.531372 
z"/>
<path fill="#1C181A" opacity="1.000000" stroke="none" 
	d="
M1.000000,577.468628 
	C78.320030,576.986206 155.640060,576.961792 232.960098,576.978516 
	C239.119415,576.979858 239.883316,577.860779 239.888031,584.533386 
	C239.917252,625.859863 239.903931,667.186401 239.916397,708.512878 
	C239.919205,717.814453 240.122604,718.013489 249.469711,718.016785 
	C280.131317,718.027710 310.792908,718.030457 341.454498,718.023010 
	C350.813538,718.020752 350.999207,717.824158 350.999023,708.528137 
	C350.995422,532.723938 350.989166,356.919769 350.986176,181.115570 
	C350.985962,169.028671 350.995789,169.034882 362.911011,169.035446 
	C427.733673,169.038544 492.556305,169.038086 557.378967,169.040283 
	C559.211914,169.040344 561.048889,169.137741 562.877075,169.048981 
	C567.320740,168.833221 569.207825,170.873688 569.156982,175.327850 
	C569.039001,185.657974 569.139404,195.990524 569.144287,206.322098 
	C569.147095,212.154465 568.574219,218.051697 569.238586,223.806808 
	C571.079712,239.755127 565.698059,253.857315 559.280212,267.899902 
	C555.704590,275.723633 552.808594,283.863525 549.736694,291.910706 
	C545.239197,303.692413 540.885681,315.529022 536.419312,327.322693 
	C533.127258,336.015564 529.793091,344.693024 526.403931,353.348450 
	C522.648132,362.940186 518.772034,372.484772 515.014587,382.075867 
	C510.364288,393.946350 505.742523,405.828308 501.181458,417.733337 
	C496.310486,430.447296 491.663696,443.248749 486.669647,455.913635 
	C478.874390,475.682220 470.744324,495.319214 463.007416,515.110229 
	C459.383606,524.379822 456.580383,533.969238 452.990723,543.253479 
	C447.060913,558.590210 440.670319,573.748596 434.711700,589.074585 
	C430.203735,600.669312 426.168213,612.446838 421.741333,624.074097 
	C414.362854,643.453796 406.854401,662.784180 399.373352,682.124756 
	C390.566010,704.893921 381.684479,727.634583 372.920929,750.420593 
	C366.605194,766.842163 360.422974,783.315063 354.193909,799.769958 
	C348.382324,815.121948 342.446930,830.429565 336.864288,845.864624 
	C335.006775,851.000305 332.161591,853.053772 326.567932,853.027039 
	C285.742249,852.831787 244.912201,853.181519 204.091110,852.707153 
	C195.639084,852.609009 187.162186,850.033386 178.798889,848.146851 
	C169.463608,846.040955 160.136276,843.770081 150.998459,840.946411 
	C133.458221,835.526489 117.270195,826.926880 101.423141,817.903931 
	C93.299797,813.278625 86.163132,806.857117 78.807617,800.963989 
	C70.927567,794.650452 62.888214,788.437683 55.703259,781.381775 
	C48.383354,774.193359 41.368622,766.500305 35.385105,758.189575 
	C25.978340,745.124390 17.341995,731.484436 8.828943,717.807983 
	C6.255373,713.673462 5.178107,708.609680 3.396917,703.978577 
	C2.811367,702.456177 2.167421,700.956177 1.275089,699.222961 
	C1.000000,658.645752 1.000000,618.291565 1.000000,577.468628 
z"/>
<path fill="#1B1819" opacity="1.000000" stroke="none" 
	d="
M1.000005,746.468628 
	C3.410529,748.907715 6.420179,751.504272 8.121834,754.780212 
	C13.751014,765.617004 21.129253,775.108887 29.388836,783.968201 
	C38.447254,793.684448 47.366982,803.558228 56.901627,812.790710 
	C62.048477,817.774475 68.492226,821.391541 74.093300,825.942200 
	C78.660858,829.653259 83.255585,833.117126 83.187065,840.363037 
	C82.893951,871.358154 83.068192,902.357849 83.093674,933.355835 
	C83.100510,941.675964 83.530327,942.105042 91.884491,942.105225 
	C372.366669,942.111084 652.848816,942.110718 933.330994,942.102966 
	C941.567810,942.102722 942.079041,941.575012 942.096008,933.267517 
	C942.124817,919.101807 942.108887,904.935974 942.119934,890.770203 
	C942.129028,879.091125 942.134216,879.088684 953.569397,879.079956 
	C977.067261,879.062073 1000.565125,879.047180 1024.531494,879.015503 
	C1025.000000,927.651978 1025.000000,976.303955 1025.000000,1024.978027 
	C683.784485,1024.978027 342.568909,1024.978027 1.000000,1024.978027 
	C1.000000,932.312744 1.000000,839.625000 1.000005,746.468628 
z"/>
<path fill="#000000" opacity="1.000000" stroke="none" 
	d="
M700.013184,437.985718 
	C705.052734,421.054047 710.023804,404.514984 714.994873,387.975952 
	C715.568481,387.958771 716.142090,387.941589 716.715698,387.924408 
	C717.709961,389.872559 718.925293,391.740814 719.662659,393.781769 
	C724.511414,407.202209 729.489746,420.583008 733.963867,434.129364 
	C737.652222,445.296844 740.486389,456.744537 744.085938,467.943726 
	C750.201660,486.971344 756.634888,505.896790 762.909607,524.873474 
	C767.952576,540.125061 772.992554,555.377869 777.963928,570.652832 
	C780.015137,576.955383 781.734253,583.368835 783.892273,589.632690 
	C785.132629,593.232849 783.872925,594.689026 780.436096,594.912048 
	C778.609741,595.030518 776.773193,595.018066 774.941223,595.018372 
	C736.290344,595.025208 697.639526,595.026001 658.988647,595.024963 
	C657.656067,595.024963 656.323486,594.993958 654.990906,594.978149 
	C651.753540,594.939819 650.459045,593.736633 651.552979,590.275940 
	C656.543640,574.488464 661.394836,558.656860 666.291016,542.839539 
	C670.447754,529.411011 674.452393,515.933289 678.783386,502.561279 
	C685.724548,481.130524 692.879822,459.769073 700.013184,437.985718 
z"/>
</svg>