<?xml version="1.0" encoding="UTF-8" standalone="no"?>
<!-- Created with Inkscape (http://www.inkscape.org/) -->

<svg
   version="1.1"
   id="svg2"
   width="384"
   height="384"
   viewBox="0 0 384 384"
   sodipodi:docname="jeep-jk-seeklogo.eps"
   xmlns:inkscape="http://www.inkscape.org/namespaces/inkscape"
   xmlns:sodipodi="http://sodipodi.sourceforge.net/DTD/sodipodi-0.dtd"
   xmlns="http://www.w3.org/2000/svg"
   xmlns:svg="http://www.w3.org/2000/svg">
  <defs
     id="defs6" />
  <sodipodi:namedview
     id="namedview4"
     pagecolor="#ffffff"
     bordercolor="#000000"
     borderopacity="0.25"
     inkscape:showpageshadow="2"
     inkscape:pageopacity="0.0"
     inkscape:pagecheckerboard="0"
     inkscape:deskcolor="#d1d1d1" />
  <g
     id="g8"
     inkscape:groupmode="layer"
     inkscape:label="ink_ext_XXXXXX"
     transform="matrix(1.3333333,0,0,-1.3333333,0,384)">
    <g
       id="g10"
       transform="scale(0.1)">
      <path
         d="M 230.73,2650.1 H 2649.92 V 2487.99 H 2880 V 2880 H 0 V 1319.25 H 230.73 V 2650.1"
         style="fill:#231f20;fill-opacity:1;fill-rule:nonzero;stroke:none"
         id="path12" />
      <path
         d="M 2649.92,2057.71 V 949.75 L 2880,612.801 V 2397.09 l -230.08,-339.38"
         style="fill:#231f20;fill-opacity:1;fill-rule:nonzero;stroke:none"
         id="path14" />
      <path
         d="M 2879.97,390.34 H 2649.92 V 228.719 H 230.73 V 521.922 L 0,656.16 V 0 h 2880 v 390.34 h -0.03"
         style="fill:#231f20;fill-opacity:1;fill-rule:nonzero;stroke:none"
         id="path16" />
      <path
         d="m 2175.09,1502.81 c 0,0 602.57,885.59 615.54,904.98 -40.45,0 -721.68,0 -721.68,0 l -472.6,-812.43 c 0,0 0,514.94 0,812.43 -239.68,0 -713.729,0 -713.729,0 V 839.539 H 703.008 V 1239.06 H 0 V 748.961 L 478.535,470.539 H 1596.35 l 0.09,822.531 566.93,-822.531 h 716.6 L 2175.09,1502.81"
         style="fill:#231f20;fill-opacity:1;fill-rule:nonzero;stroke:none"
         id="path18" />
    </g>
  </g>
</svg>
